<?xml version="1.0" encoding="UTF-8"?>
<svg version="1.1" xmlns="http://www.w3.org/2000/svg" width="300" height="300">
<path d="M0 0 C7.46556417 6.13835277 8.8075071 13.81339299 10.5 22.875 C10.71430664 23.98238525 10.92861328 25.08977051 11.14941406 26.23071289 C12.10582337 31.1927173 13.03179153 36.16028648 13.953125 41.12890625 C14.09041016 41.86834473 14.22769531 42.6077832 14.36914062 43.36962891 C14.72588216 45.30655247 15.07418588 47.24502477 15.421875 49.18359375 C15.86063776 51.93646707 15.86063776 51.93646707 17 54 C17.19577637 52.90667358 17.19577637 52.90667358 17.39550781 51.79125977 C25.66147877 5.83984418 25.66147877 5.83984418 33.27734375 0.0390625 C39.41017397 -3.66010493 46.21423207 -3.51408828 53 -2 C56.89200226 -0.59334001 59.4542862 1.07001829 61.59765625 4.72265625 C66.51261699 16.20915223 66.57887413 29.92285131 67.6875 42.25 C67.78756348 43.34217834 67.78756348 43.34217834 67.88964844 44.4564209 C69.55647131 62.89616719 69.55647131 62.89616719 69 72 C68 73 68 73 66.23413086 73.11352539 C65.48526611 73.10828857 64.73640137 73.10305176 63.96484375 73.09765625 C63.15595703 73.09443359 62.34707031 73.09121094 61.51367188 73.08789062 C60.66353516 73.07951172 59.81339844 73.07113281 58.9375 73.0625 C58.08349609 73.05798828 57.22949219 73.05347656 56.34960938 73.04882812 C54.23304337 73.03700373 52.11651315 73.01906769 50 73 C48.31964698 60.55123278 47.20567318 48.10002864 46.24731445 35.57739258 C46.0631525 33.18800324 45.87362056 30.79908513 45.68359375 28.41015625 C45.60231483 27.3120034 45.60231483 27.3120034 45.51939392 26.19166565 C45.51811081 22.80403191 45.51811081 22.80403191 44 20 C43.80365967 21.0737085 43.60731934 22.14741699 43.4050293 23.25366211 C42.6679121 27.27490398 41.92222559 31.29451879 41.17407227 35.3137207 C40.85275786 37.04636794 40.53370246 38.7794358 40.21704102 40.51293945 C39.75885191 43.01890915 39.29228982 45.52320332 38.82421875 48.02734375 C38.68658615 48.79022202 38.54895355 49.55310028 38.40715027 50.33909607 C35.4792053 65.8262148 35.4792053 65.8262148 28.81640625 70.84765625 C23.57371568 74.17366425 18.06484833 74.80798144 12 74 C6.0670053 72.2410192 2.61988326 70.0863049 -1 65 C-4.39512692 56.15582395 -6.062229 46.57327011 -7.86523438 37.29125977 C-8.25745949 35.2741376 -8.65936129 33.25910737 -9.0625 31.24414062 C-11 21.42319037 -11 21.42319037 -11 18 C-11.66 18 -12.32 18 -13 18 C-13.05406006 19.07169434 -13.10812012 20.14338867 -13.16381836 21.24755859 C-13.76157458 32.72581123 -14.60615696 44.17162657 -15.5625 55.625 C-15.70269239 57.32550284 -15.84266719 59.02602363 -15.98242188 60.7265625 C-16.31912264 64.81791832 -16.6587108 68.90902448 -17 73 C-20.14581423 73.02888514 -23.29159469 73.04675923 -26.4375 73.0625 C-27.33533203 73.07087891 -28.23316406 73.07925781 -29.15820312 73.08789062 C-30.43920898 73.09272461 -30.43920898 73.09272461 -31.74609375 73.09765625 C-32.53685303 73.10289307 -33.3276123 73.10812988 -34.14233398 73.11352539 C-36 73 -36 73 -37 72 C-36.98749358 69.08913158 -36.89792531 66.21787052 -36.75 63.3125 C-36.70407715 62.39782959 -36.6581543 61.48315918 -36.61083984 60.54077148 C-36.14465362 52.1968632 -35.4234678 43.88056424 -34.625 35.5625 C-34.45436035 33.71748901 -34.45436035 33.71748901 -34.28027344 31.83520508 C-31.78169508 6.97435043 -31.78169508 6.97435043 -25 1 C-17.27792233 -4.46195737 -8.24296616 -4.42219214 0 0 Z " fill="#370F91" transform="translate(131,131)"/>
<path d="M0 0 C0.80052795 0.00007553 1.60105591 0.00015106 2.42584229 0.00022888 C3.70730133 0.00797081 3.70730133 0.00797081 5.01464844 0.01586914 C5.89683044 0.01728409 6.77901245 0.01869904 7.68792725 0.02015686 C10.49999409 0.02574538 13.31198074 0.03829578 16.12402344 0.05102539 C18.03287645 0.05604187 19.94173072 0.06060452 21.85058594 0.06469727 C26.52509591 0.07571105 31.19954609 0.09296781 35.87402344 0.11352539 C35.87402344 5.39352539 35.87402344 10.67352539 35.87402344 16.11352539 C32.13986109 17.04706598 29.14072994 17.28085906 25.31542969 17.35961914 C24.04248047 17.39249023 22.76953125 17.42536133 21.45800781 17.45922852 C19.44593066 17.50660327 17.43388346 17.55107689 15.42163086 17.59033203 C13.46937909 17.63023242 11.51738786 17.68229047 9.56542969 17.73461914 C8.40213135 17.75967529 7.23883301 17.78473145 6.0402832 17.81054688 C2.89110671 18.1118907 0.67608938 18.66649301 -2.12597656 20.11352539 C-5.72418692 25.14944862 -5.58007797 30.10523659 -5.50097656 36.05102539 C-5.51257813 36.91920898 -5.52417969 37.78739258 -5.53613281 38.68188477 C-5.51091651 44.24207882 -4.76824784 48.19903066 -2.12597656 53.11352539 C2.46154545 56.5937145 9.27762251 56.25876961 14.80371094 56.42993164 C16.73730469 56.49277344 16.73730469 56.49277344 18.70996094 56.55688477 C20.05631252 56.59668567 21.40266673 56.63639812 22.74902344 56.67602539 C24.11882677 56.71927722 25.48861865 56.76289351 26.85839844 56.80688477 C30.19682852 56.91268009 33.53541311 57.01357973 36.87402344 57.11352539 C36.87402344 62.72352539 36.87402344 68.33352539 36.87402344 74.11352539 C32.43004608 74.18320448 27.98803824 74.24268013 23.54394531 74.27832031 C22.03899642 74.2932097 20.53408933 74.31352809 19.02929688 74.33984375 C4.8547736 74.58113236 -10.07589027 74.26969294 -21.12597656 64.11352539 C-26.94008246 56.08376296 -28.0112509 48.00323614 -27.7434082 38.34814453 C-27.68804914 36.28509684 -27.68188511 34.2260731 -27.68261719 32.16235352 C-27.60206893 21.95701212 -26.13720639 15.60457286 -19.16113281 7.97680664 C-13.73141253 3.00564239 -7.38820473 -0.02338039 0 0 Z " fill="#380F91" transform="translate(237.1259765625,129.886474609375)"/>
<path d="M0 0 C6.86446387 -0.02310403 13.72878978 -0.04297263 20.59326172 -0.05493164 C22.92269348 -0.05992351 25.25212218 -0.06671934 27.58154297 -0.07543945 C62.38030839 -0.20233328 62.38030839 -0.20233328 66.17822266 2.61694336 C70.80532214 7.5944969 71.30782177 12.48704708 71.203125 19.07421875 C70.90884153 23.31303261 70.54398839 27.50892898 68 31 C61.15894281 35.62255398 55.07228927 35.49041182 47 35.25 C45.84371094 35.23195312 44.68742187 35.21390625 43.49609375 35.1953125 C40.66370116 35.14849609 37.83173919 35.07676401 35 35 C35 27.74 35 20.48 35 13 C38.63 13 42.26 13 46 13 C46 17.29 46 21.58 46 26 C50.29 26 54.58 26 59 26 C59 20.72 59 15.44 59 10 C42.65824395 9.00959054 26.36885022 8.88388352 10 9 C10.33 9.99 10.66 10.98 11 12 C16.94 12.66 22.88 13.32 29 14 C29 16.64 29 19.28 29 22 C22.73 22.33 16.46 22.66 10 23 C10 23.99 10 24.98 10 26 C16.27 26 22.54 26 29 26 C29 29.3 29 32.6 29 36 C19.43 36 9.86 36 0 36 C0 24.12 0 12.24 0 0 Z " fill="#370F8F" transform="translate(211,82)"/>
<path d="M0 0 C1.0450621 -0.0033284 2.09012421 -0.0066568 3.16685486 -0.01008606 C5.36977703 -0.01513531 7.57270681 -0.01749501 9.77563477 -0.01733398 C13.14417045 -0.01952593 16.51238133 -0.03771797 19.88085938 -0.05664062 C22.02473847 -0.05957387 24.16861911 -0.06155913 26.3125 -0.0625 C27.31781265 -0.06968552 28.32312531 -0.07687103 29.35890198 -0.08427429 C30.30015427 -0.08119766 31.24140656 -0.07812103 32.21118164 -0.07495117 C33.0346962 -0.07637619 33.85821075 -0.07780121 34.7066803 -0.07926941 C37.51080936 0.21164127 39.57940853 0.88670035 42.08984375 2.16796875 C44.40412383 6.02510222 45.37560695 8.85890069 45.08984375 13.35546875 C44.08984375 17.16796875 44.08984375 17.16796875 41.83984375 19.66796875 C38.86497949 21.29062198 37.39466766 21.30104891 34.08984375 21.16796875 C34.72792969 21.92722656 35.36601563 22.68648437 36.0234375 23.46875 C36.84972656 24.46261719 37.67601562 25.45648438 38.52734375 26.48046875 C39.35105469 27.46660156 40.17476563 28.45273438 41.0234375 29.46875 C43.08984375 32.16796875 43.08984375 32.16796875 44.08984375 35.16796875 C40.78385656 36.82096234 37.6346465 36.93289987 34.08984375 36.16796875 C29.26466849 33.07602431 25.44472805 28.78093467 22.08984375 24.16796875 C21.75984375 28.12796875 21.42984375 32.08796875 21.08984375 36.16796875 C17.78984375 36.16796875 14.48984375 36.16796875 11.08984375 36.16796875 C11.06282345 33.41790267 11.04299492 30.66810329 11.02734375 27.91796875 C11.01896484 27.14066406 11.01058594 26.36335938 11.00195312 25.5625 C10.99873047 24.80839844 10.99550781 24.05429688 10.9921875 23.27734375 C10.98695068 22.58608398 10.98171387 21.89482422 10.97631836 21.18261719 C11.09896664 19.00607182 11.31824578 17.2126619 12.08984375 15.16796875 C14.74902541 14.28157486 16.57049016 13.9880785 19.3203125 13.8515625 C20.12275391 13.80966797 20.92519531 13.76777344 21.75195312 13.72460938 C23.00202148 13.66563477 23.00202148 13.66563477 24.27734375 13.60546875 C25.12232422 13.56228516 25.96730469 13.51910156 26.83789062 13.47460938 C28.92168808 13.36865357 31.00574478 13.26781855 33.08984375 13.16796875 C33.41984375 12.17796875 33.74984375 11.18796875 34.08984375 10.16796875 C19.23984375 10.16796875 4.38984375 10.16796875 -10.91015625 10.16796875 C-12.41172499 13.17110623 -12.00296829 15.95864397 -11.97265625 19.29296875 C-11.95203125 21.56171875 -11.93140625 23.83046875 -11.91015625 26.16796875 C-5.64015625 26.16796875 0.62984375 26.16796875 7.08984375 26.16796875 C7.08984375 29.46796875 7.08984375 32.76796875 7.08984375 36.16796875 C-14.06431437 36.71663568 -14.06431437 36.71663568 -20.47265625 31.79296875 C-25.02106359 26.89468392 -24.23945308 21.10546215 -24.19921875 14.66796875 C-23.80067008 9.84229842 -22.60147034 7.16649254 -19.91015625 3.16796875 C-13.97925259 -0.78596702 -6.89707266 0.00765007 0 0 Z " fill="#360F8E" transform="translate(50.91015625,81.83203125)"/>
<path d="M0 0 C26.91972477 0 26.91972477 0 32 5 C32.4609375 7.12109375 32.4609375 7.12109375 32.375 9.4375 C32.36210938 10.19933594 32.34921875 10.96117187 32.3359375 11.74609375 C31.97375235 14.17610344 31.20955422 15.87602279 30 18 C30.474375 18.556875 30.94875 19.11375 31.4375 19.6875 C33.21549889 22.31893836 33.84890245 23.82695141 34 27 C32.28443933 31.76544632 30.52148131 33.81401269 26 36 C23.0456543 36.34057617 23.0456543 36.34057617 19.82421875 36.29296875 C18.25933716 36.28172974 18.25933716 36.28172974 16.6628418 36.27026367 C15.350979 36.24295166 14.03911621 36.21563965 12.6875 36.1875 C8.500625 36.125625 4.31375 36.06375 0 36 C0 24.12 0 12.24 0 0 Z M10 9 C10 10.32 10 11.64 10 13 C12.28705831 14.14352916 13.59264762 14.10334439 16.125 14.0625 C17.40375 14.041875 18.6825 14.02125 20 14 C20.33 12.35 20.66 10.7 21 9 C16.98195309 8.15901344 13.98196457 7.94595055 10 9 Z M10 22 C10 24.31 10 26.62 10 29 C15.445 28.505 15.445 28.505 21 28 C21.33 26.68 21.66 25.36 22 24 C17.82262526 22.40861915 14.46839215 21.78721942 10 22 Z " fill="#370F8E" transform="translate(28,127)"/>
<path d="M0 0 C10.23 0 20.46 0 31 0 C31 2.64 31 5.28 31 8 C24.73 8.33 18.46 8.66 12 9 C12.33 10.32 12.66 11.64 13 13 C19.27 13.33 25.54 13.66 32 14 C31.67 16.31 31.34 18.62 31 21 C27.28720531 22.23759823 23.68693654 22.35608897 19.8125 22.5625 C19.06291016 22.60568359 18.31332031 22.64886719 17.54101562 22.69335938 C15.69421625 22.79922685 13.84713166 22.9000976 12 23 C12 23.99 12 24.98 12 26 C13.27875 25.979375 14.5575 25.95875 15.875 25.9375 C20.96207017 25.92941245 25.9516147 26.40979211 31 27 C31 29.64 31 32.28 31 35 C21.1 35 11.2 35 1 35 C0.505 17.675 0.505 17.675 0 0 Z " fill="#370F90" transform="translate(99,82)"/>
<path d="M0 0 C8.37008765 7.30156582 14.48623707 22.26105688 17 33 C16.59375 35.30078125 16.59375 35.30078125 16 37 C10.70163934 37.52983607 10.70163934 37.52983607 8 37 C7.360625 36.030625 6.72125 35.06125 6.0625 34.0625 C4.38708015 30.89493951 4.38708015 30.89493951 1.97265625 30.34375 C-2.39231017 29.82082557 -6.8223099 29.54266624 -11 31 C-11.61875 32.010625 -12.2375 33.02125 -12.875 34.0625 C-15 37 -15 37 -17.0234375 37.39453125 C-19.25 37.375 -19.25 37.375 -23 37 C-24.23534165 33.29397506 -23.62679449 32.48964811 -22.0859375 28.9921875 C-21.43818359 27.51105469 -21.43818359 27.51105469 -20.77734375 26 C-20.31457031 24.96875 -19.85179687 23.9375 -19.375 22.875 C-18.93542969 21.86695312 -18.49585938 20.85890625 -18.04296875 19.8203125 C-8.6164961 -1.52055814 -8.6164961 -1.52055814 0 0 Z M-4 10 C-4.50615298 11.26839526 -5.00469099 12.53983102 -5.5 13.8125 C-5.7784375 14.52019531 -6.056875 15.22789063 -6.34375 15.95703125 C-7.1529162 18.11841216 -7.1529162 18.11841216 -7 21 C-4.69 21 -2.38 21 0 21 C-0.46800711 16.94393835 -0.87953208 13.53411321 -3 10 C-3.33 10 -3.66 10 -4 10 Z " fill="#360F8E" transform="translate(157,81)"/>
<path d="M0 0 C3.38034138 -0.29029649 6.6269844 -0.41963501 10 0 C13.44883251 3.0066745 15.08248641 6.87734577 17 11 C17.66 11 18.32 11 19 11 C20.87839735 8.50603147 22.54259827 5.90110719 24.24609375 3.28515625 C26 1 26 1 29 0 C31.33299825 -0.03954234 33.66708189 -0.04401732 36 0 C35.46321363 4.83107729 33.11973548 8.33304639 30.625 12.375 C26.04273951 20.08075228 24.10982286 27.12141709 23 36 C19.7 36 16.4 36 13 36 C12.96003906 35.25878906 12.92007813 34.51757812 12.87890625 33.75390625 C11.72718796 22.13719217 6.40407565 12.60611348 0 3 C0 2.01 0 1.02 0 0 Z " fill="#360F8E" transform="translate(62,127)"/>
<path d="M0 0 C12.21 0 24.42 0 37 0 C37 2.31 37 4.62 37 7 C36.67 7.33 36.34 7.66 36 8 C31.71 8 27.42 8 23 8 C23 17.24 23 26.48 23 36 C19.7 36 16.4 36 13 36 C13 26.76 13 17.52 13 8 C8.71 8 4.42 8 0 8 C0 5.36 0 2.72 0 0 Z " fill="#370F8E" transform="translate(170,82)"/>
</svg>
